<svg width="1584" height="396" viewBox="0 0 1584 396" fill="none" xmlns="http://www.w3.org/2000/svg">
<rect width="1584" height="396" fill="#F5F5F5"/>
<g id="Awesome banner" clip-path="url(#clip0_0_1)">
<rect width="1584" height="396" fill="url(#paint0_linear_0_1)"/>
<ellipse id="Ellipse 2" cx="323" cy="64" rx="285" ry="288" fill="url(#paint1_linear_0_1)" fill-opacity="0.1"/>
<g id="copyright">
<path d="M75.95 334.52L72.30 334.52L72.30 311.16L77.20 311.16L83.70 330.04Q83.60 329.02 83.50 327.62Q83.41 326.23 83.33 324.79Q83.25 323.35 83.25 322.23L83.25 311.16L86.90 311.16L86.90 334.52L82 334.52L75.57 315.64Q75.63 316.57 75.73 317.88Q75.82 319.19 75.89 320.57Q75.95 321.94 75.95 323.10L75.95 334.52M98.80 334.84Q96.46 334.84 94.67 333.96Q92.88 333.08 91.89 331.53Q90.90 329.98 90.90 327.93Q90.90 325.78 92.13 324.18Q93.36 322.58 95.34 322.17L95.34 322.10Q93.65 321.75 92.61 320.38Q91.57 319 91.57 317.11Q91.57 315.26 92.48 313.85Q93.39 312.44 95.02 311.64Q96.66 310.84 98.80 310.84Q100.94 310.84 102.59 311.64Q104.24 312.44 105.15 313.85Q106.06 315.26 106.06 317.11Q106.06 319 105.01 320.38Q103.95 321.75 102.26 322.10L102.26 322.17Q104.24 322.58 105.47 324.18Q106.70 325.78 106.70 327.93Q106.70 329.98 105.71 331.53Q104.72 333.08 102.93 333.96Q101.14 334.84 98.80 334.84M98.80 320.73Q100.30 320.73 101.23 319.82Q102.16 318.90 102.16 317.46Q102.16 315.99 101.23 315.08Q100.30 314.17 98.80 314.17Q97.30 314.17 96.37 315.08Q95.44 315.99 95.44 317.46Q95.44 318.90 96.37 319.82Q97.30 320.73 98.80 320.73M98.80 331.45Q100.56 331.45 101.68 330.42Q102.80 329.40 102.80 327.74Q102.80 326.04 101.68 325Q100.56 323.96 98.80 323.96Q97.04 323.96 95.92 325Q94.80 326.04 94.80 327.74Q94.80 329.40 95.92 330.42Q97.04 331.45 98.80 331.45M114.35 334.52L110.70 334.52L110.70 311.16L115.60 311.16L122.10 330.04Q122 329.02 121.90 327.62Q121.81 326.23 121.73 324.79Q121.65 323.35 121.65 322.23L121.65 311.16L125.30 311.16L125.30 334.52L120.40 334.52L113.97 315.64Q114.03 316.57 114.13 317.88Q114.22 319.19 114.29 320.57Q114.35 321.94 114.35 323.10" fill="white" fill-opacity="0.9"/>
<path d="M161.48 325.24L151.24 325.24L151.24 322.68L161.48 322.68" fill="white" fill-opacity="0.9"/>
<path d="M195.02 334.84Q191.82 334.84 189.96 333.05Q188.11 331.26 188.11 328.12L188.11 317.56Q188.11 314.42 189.96 312.63Q191.82 310.84 195.02 310.84Q198.15 310.84 200.01 312.65Q201.87 314.46 201.87 317.56L198.99 317.56Q198.99 315.58 197.95 314.50Q196.91 313.43 195.02 313.43Q193.13 313.43 192.06 314.50Q190.99 315.58 190.99 317.56L190.99 328.12Q190.99 330.10 192.06 331.18Q193.13 332.25 195.02 332.25Q196.91 332.25 197.95 331.18Q198.99 330.10 198.99 328.12L201.87 328.12Q201.87 331.22 200.01 333.03Q198.15 334.84 195.02 334.84" fill="white" fill-opacity="0.9"/>
<path d="M213.96 334.84Q210.83 334.84 209 333.02Q207.18 331.19 207.18 327.80L207.18 317.88Q207.18 314.49 209 312.66Q210.83 310.84 213.96 310.84Q217.10 310.84 218.92 312.66Q220.75 314.49 220.75 317.85L220.75 327.80Q220.75 331.19 218.92 333.02Q217.10 334.84 213.96 334.84M213.96 332.25Q215.85 332.25 216.86 331.18Q217.87 330.10 217.87 328.12L217.87 317.56Q217.87 315.58 216.86 314.50Q215.85 313.43 213.96 313.43Q212.11 313.43 211.08 314.50Q210.06 315.58 210.06 317.56L210.06 328.12Q210.06 330.10 211.08 331.18Q212.11 332.25 213.96 332.25" fill="white" fill-opacity="0.9"/>
<path d="M228.65 334.52L225.87 334.52L225.87 311.16L230.12 311.16L233.10 321.27L236.20 311.16L240.46 311.16L240.46 334.52L237.67 334.52L237.67 323.48Q237.67 321.91 237.72 319.88Q237.77 317.85 237.87 315.77Q237.96 313.69 238.09 312.02L234.31 324.09L231.82 324.09L228.20 312.31Q228.46 314.68 228.55 317.50Q228.65 320.31 228.65 323.48" fill="white" fill-opacity="0.9"/>
<path d="M247.85 334.52L245.07 334.52L245.07 311.16L249.32 311.16L252.30 321.27L255.40 311.16L259.66 311.16L259.66 334.52L256.87 334.52L256.87 323.48Q256.87 321.91 256.92 319.88Q256.97 317.85 257.07 315.77Q257.16 313.69 257.29 312.02L253.51 324.09L251.02 324.09L247.40 312.31Q247.66 314.68 247.75 317.50Q247.85 320.31 247.85 323.48" fill="white" fill-opacity="0.9"/>
<path d="M271.56 334.84Q268.30 334.84 266.57 333.03Q264.84 331.22 264.84 328.12L264.84 311.16L267.72 311.16L267.72 328.12Q267.72 330.04 268.67 331.16Q269.61 332.28 271.56 332.28Q273.48 332.28 274.44 331.16Q275.40 330.04 275.40 328.12L275.40 311.16L278.28 311.16L278.28 328.12Q278.28 331.26 276.57 333.05Q274.86 334.84 271.56 334.84" fill="white" fill-opacity="0.9"/>
<path d="M286.83 334.52L284.04 334.52L284.04 311.16L287.88 311.16L295.02 331.16Q294.95 330.36 294.87 329.19Q294.79 328.02 294.75 326.73Q294.70 325.43 294.70 324.28L294.70 311.16L297.48 311.16L297.48 334.52L293.64 334.52L286.54 314.52Q286.60 315.29 286.67 316.46Q286.73 317.62 286.78 318.92Q286.83 320.22 286.83 321.40" fill="white" fill-opacity="0.9"/>
<path d="M316.20 334.52L303.72 334.52L303.72 331.90L308.49 331.90L308.49 313.78L303.72 313.78L303.72 311.16L316.20 311.16L316.20 313.78L311.43 313.78L311.43 331.90L316.20 331.90" fill="white" fill-opacity="0.9"/>
<path d="M330.60 334.52L327.72 334.52L327.72 313.78L321.32 313.78L321.32 311.16L337 311.16L337 313.78L330.60 313.78" fill="white" fill-opacity="0.9"/>
<path d="M349.80 334.52L346.92 334.52L346.92 325.78L339.88 311.16L342.95 311.16L347.50 320.76Q347.88 321.56 348.11 322.12Q348.33 322.68 348.39 322.94Q348.46 322.68 348.70 322.12Q348.94 321.56 349.32 320.76L353.87 311.16L356.84 311.16L349.80 325.78" fill="white" fill-opacity="0.9"/>
<path d="M382.83 334.52L380.04 334.52L380.04 311.16L383.88 311.16L391.02 331.16Q390.95 330.36 390.87 329.19Q390.79 328.02 390.75 326.73Q390.70 325.43 390.70 324.28L390.70 311.16L393.48 311.16L393.48 334.52L389.64 334.52L382.54 314.52Q382.60 315.29 382.67 316.46Q382.73 317.62 382.78 318.92Q382.83 320.22 382.83 321.40" fill="white" fill-opacity="0.9"/>
<path d="M405.96 334.84Q402.83 334.84 401 333.02Q399.18 331.19 399.18 327.80L399.18 317.88Q399.18 314.49 401 312.66Q402.83 310.84 405.96 310.84Q409.10 310.84 410.92 312.66Q412.75 314.49 412.75 317.85L412.75 327.80Q412.75 331.19 410.92 333.02Q409.10 334.84 405.96 334.84M405.96 332.25Q407.85 332.25 408.86 331.18Q409.87 330.10 409.87 328.12L409.87 317.56Q409.87 315.58 408.86 314.50Q407.85 313.43 405.96 313.43Q404.11 313.43 403.08 314.50Q402.06 315.58 402.06 317.56L402.06 328.12Q402.06 330.10 403.08 331.18Q404.11 332.25 405.96 332.25" fill="white" fill-opacity="0.9"/>
<path d="M424.55 334.52L418.51 334.52L418.51 311.16L424.55 311.16Q426.83 311.16 428.47 312.02Q430.12 312.89 431.03 314.46Q431.95 316.02 431.95 318.17L431.95 327.48Q431.95 329.62 431.03 331.21Q430.12 332.79 428.47 333.66Q426.83 334.52 424.55 334.52M421.39 313.72L421.39 331.96L424.55 331.96Q426.67 331.96 427.87 330.78Q429.07 329.59 429.07 327.48L429.07 318.17Q429.07 316.09 427.87 314.90Q426.67 313.72 424.55 313.72" fill="white" fill-opacity="0.9"/>
<path d="M451.40 334.52L437.96 334.52L437.96 311.16L451.40 311.16L451.40 313.78L440.81 313.78L440.81 321.02L450.28 321.02L450.28 323.58L440.81 323.58L440.81 331.90L451.40 331.90" fill="white" fill-opacity="0.9"/>
<path d="M463.69 334.84Q460.30 334.84 458.28 333.05Q456.27 331.26 456.27 328.12L459.15 328.12Q459.15 330.07 460.39 331.18Q461.64 332.28 463.69 332.28Q465.67 332.28 466.86 331.13Q468.04 329.98 468.04 328.12Q468.04 326.71 467.29 325.67Q466.54 324.63 465.13 324.25L461.58 323.26Q459.37 322.62 458.11 320.97Q456.84 319.32 456.84 317.08Q456.84 315.22 457.67 313.82Q458.51 312.41 460.01 311.62Q461.51 310.84 463.47 310.84Q465.45 310.84 466.97 311.62Q468.49 312.41 469.35 313.80Q470.22 315.19 470.22 317.02L467.34 317.02Q467.34 315.42 466.25 314.41Q465.16 313.40 463.47 313.40Q461.77 313.40 460.71 314.41Q459.66 315.42 459.66 317.02Q459.66 318.30 460.35 319.21Q461.03 320.12 462.28 320.47L465.93 321.50Q468.27 322.14 469.56 323.91Q470.86 325.69 470.86 328.12Q470.86 331.19 468.91 333.02Q466.95 334.84 463.69 334.84" fill="white" fill-opacity="0.9"/>
</g>
<path d="M73.82 197.64L71.73 197.64L71.73 180.12L74.92 180.12L77.15 187.70L79.48 180.12L82.67 180.12L82.67 197.64L80.58 197.64L80.58 189.36Q80.58 188.18 80.62 186.66Q80.66 185.14 80.73 183.58Q80.80 182.02 80.90 180.77L78.06 189.82L76.19 189.82L73.48 180.98Q73.67 182.76 73.74 184.87Q73.82 186.98 73.82 189.36" fill="white" fill-opacity="0.7"/>
<path d="M90.45 197.88Q88.41 197.88 87.21 196.74Q86.01 195.60 86.01 193.75Q86.01 192.53 86.56 191.62Q87.11 190.70 88.10 190.19Q89.08 189.67 90.35 189.67L94.43 189.67L94.43 188.64Q94.43 186.07 91.62 186.07Q90.38 186.07 89.61 186.53Q88.84 186.98 88.79 187.80L86.63 187.80Q86.75 186.24 88.08 185.22Q89.42 184.20 91.62 184.20Q94.02 184.20 95.31 185.35Q96.59 186.50 96.59 188.57L96.59 197.64L94.46 197.64L94.46 195.24L94.41 195.24Q94.22 196.46 93.18 197.17Q92.15 197.88 90.45 197.88M90.98 196.06Q92.56 196.06 93.50 195.29Q94.43 194.52 94.43 193.20L94.43 191.35L90.59 191.35Q89.54 191.35 88.88 191.99Q88.22 192.62 88.22 193.68Q88.22 194.78 88.95 195.42Q89.68 196.06 90.98 196.06" fill="white" fill-opacity="0.7"/>
<path d="M103.17 197.64L101.01 197.64L101.01 180.12L103.17 180.12L103.17 186.96L103.19 186.96Q103.36 185.64 104.27 184.92Q105.18 184.20 106.70 184.20Q108.69 184.20 109.86 185.42Q111.04 186.65 111.04 188.76L111.04 197.64L108.88 197.64L108.88 189.12Q108.88 187.63 108.12 186.83Q107.37 186.02 106.07 186.02Q104.73 186.02 103.95 186.86Q103.17 187.70 103.17 189.24" fill="white" fill-opacity="0.7"/>
<path d="M119.25 197.88Q117.21 197.88 116.01 196.74Q114.81 195.60 114.81 193.75Q114.81 192.53 115.36 191.62Q115.91 190.70 116.90 190.19Q117.88 189.67 119.15 189.67L123.23 189.67L123.23 188.64Q123.23 186.07 120.42 186.07Q119.18 186.07 118.41 186.53Q117.64 186.98 117.59 187.80L115.43 187.80Q115.55 186.24 116.88 185.22Q118.22 184.20 120.42 184.20Q122.82 184.20 124.11 185.35Q125.39 186.50 125.39 188.57L125.39 197.64L123.26 197.64L123.26 195.24L123.21 195.24Q123.02 196.46 121.98 197.17Q120.95 197.88 119.25 197.88M119.78 196.06Q121.36 196.06 122.30 195.29Q123.23 194.52 123.23 193.20L123.23 191.35L119.39 191.35Q118.34 191.35 117.68 191.99Q117.02 192.62 117.02 193.68Q117.02 194.78 117.75 195.42Q118.48 196.06 119.78 196.06" fill="white" fill-opacity="0.7"/>
<path d="M132.45 197.64L130.29 197.64L130.29 184.44L132.45 184.44L132.45 186.96L132.50 186.96Q132.66 185.69 133.58 184.94Q134.49 184.20 136.02 184.20Q138.09 184.20 139.20 185.44Q140.32 186.67 140.32 188.95L140.32 190.08L138.16 190.08L138.16 188.95Q138.16 186.07 135.35 186.07Q133.94 186.07 133.19 186.89Q132.45 187.70 132.45 189.24" fill="white" fill-opacity="0.7"/>
<path d="M148.05 197.88Q146.01 197.88 144.81 196.74Q143.61 195.60 143.61 193.75Q143.61 192.53 144.16 191.62Q144.71 190.70 145.70 190.19Q146.68 189.67 147.95 189.67L152.03 189.67L152.03 188.64Q152.03 186.07 149.22 186.07Q147.98 186.07 147.21 186.53Q146.44 186.98 146.39 187.80L144.23 187.80Q144.35 186.24 145.68 185.22Q147.02 184.20 149.22 184.20Q151.62 184.20 152.91 185.35Q154.19 186.50 154.19 188.57L154.19 197.64L152.06 197.64L152.06 195.24L152.01 195.24Q151.82 196.46 150.78 197.17Q149.75 197.88 148.05 197.88M148.58 196.06Q150.16 196.06 151.10 195.29Q152.03 194.52 152.03 193.20L152.03 191.35L148.19 191.35Q147.14 191.35 146.48 191.99Q145.82 192.62 145.82 193.68Q145.82 194.78 146.55 195.42Q147.28 196.06 148.58 196.06" fill="white" fill-opacity="0.7"/>
<path d="M164.13 197.83L163.07 197.83Q160.86 197.83 159.65 196.84Q158.44 195.84 158.44 194.02L160.60 194.02Q160.60 194.93 161.25 195.44Q161.90 195.96 163.07 195.96L164.13 195.96Q165.33 195.96 165.99 195.43Q166.65 194.90 166.65 193.94Q166.65 192.24 165.09 192.02L161.44 191.50Q160.10 191.30 159.35 190.38Q158.61 189.46 158.61 187.94Q158.61 186.22 159.80 185.23Q160.98 184.25 163.07 184.25L164.13 184.25Q166.05 184.25 167.26 185.20Q168.47 186.14 168.57 187.68L166.38 187.68Q166.34 186.98 165.72 186.53Q165.11 186.07 164.13 186.07L163.07 186.07Q161.97 186.07 161.34 186.58Q160.72 187.08 160.72 187.94Q160.72 189.34 161.99 189.53L165.40 190.01Q168.76 190.49 168.76 193.94Q168.76 195.79 167.55 196.81Q166.34 197.83 164.13 197.83" fill="white" fill-opacity="0.7"/>
<path d="M175.17 197.64L173.01 197.64L173.01 180.12L175.17 180.12L175.17 186.96L175.19 186.96Q175.36 185.64 176.27 184.92Q177.18 184.20 178.70 184.20Q180.69 184.20 181.86 185.42Q183.04 186.65 183.04 188.76L183.04 197.64L180.88 197.64L180.88 189.12Q180.88 187.63 180.12 186.83Q179.37 186.02 178.07 186.02Q176.73 186.02 175.95 186.86Q175.17 187.70 175.17 189.24" fill="white" fill-opacity="0.7"/>
<path d="M197.56 197.64L193.72 197.64Q192.09 197.64 191.10 196.69Q190.12 195.74 190.12 194.16L190.12 186.41L186.33 186.41L186.33 184.44L190.12 184.44L190.12 180.72L192.28 180.72L192.28 184.44L197.68 184.44L197.68 186.41L192.28 186.41L192.28 194.16Q192.28 194.83 192.68 195.25Q193.07 195.67 193.72 195.67L197.56 195.67" fill="white" fill-opacity="0.7"/>
<path d="M204.45 197.64L202.29 197.64L202.29 184.44L204.45 184.44L204.45 186.96L204.50 186.96Q204.66 185.69 205.58 184.94Q206.49 184.20 208.02 184.20Q210.09 184.20 211.20 185.44Q212.32 186.67 212.32 188.95L212.32 190.08L210.16 190.08L210.16 188.95Q210.16 186.07 207.35 186.07Q205.94 186.07 205.19 186.89Q204.45 187.70 204.45 189.24" fill="white" fill-opacity="0.7"/>
<path d="M220.05 197.88Q218.01 197.88 216.81 196.74Q215.61 195.60 215.61 193.75Q215.61 192.53 216.16 191.62Q216.71 190.70 217.70 190.19Q218.68 189.67 219.95 189.67L224.03 189.67L224.03 188.64Q224.03 186.07 221.22 186.07Q219.98 186.07 219.21 186.53Q218.44 186.98 218.39 187.80L216.23 187.80Q216.35 186.24 217.68 185.22Q219.02 184.20 221.22 184.20Q223.62 184.20 224.91 185.35Q226.19 186.50 226.19 188.57L226.19 197.64L224.06 197.64L224.06 195.24L224.01 195.24Q223.82 196.46 222.78 197.17Q221.75 197.88 220.05 197.88M220.58 196.06Q222.16 196.06 223.10 195.29Q224.03 194.52 224.03 193.20L224.03 191.35L220.19 191.35Q219.14 191.35 218.48 191.99Q217.82 192.62 217.82 193.68Q217.82 194.78 218.55 195.42Q219.28 196.06 220.58 196.06" fill="white" fill-opacity="0.7"/>
<path d="M249.54 197.64L245.01 197.64L245.01 180.12L249.54 180.12Q251.25 180.12 252.48 180.77Q253.72 181.42 254.40 182.59Q255.09 183.77 255.09 185.38L255.09 192.36Q255.09 193.97 254.40 195.16Q253.72 196.34 252.48 196.99Q251.25 197.64 249.54 197.64M247.17 182.04L247.17 195.72L249.54 195.72Q251.13 195.72 252.03 194.83Q252.93 193.94 252.93 192.36L252.93 185.38Q252.93 183.82 252.03 182.93Q251.13 182.04 249.54 182.04" fill="white" fill-opacity="0.7"/>
<path d="M264.40 197.88Q262.07 197.88 260.64 196.48Q259.22 195.07 259.22 192.60L259.22 189.48Q259.22 187.01 260.64 185.60Q262.07 184.20 264.40 184.20Q265.96 184.20 267.12 184.82Q268.29 185.45 268.94 186.58Q269.58 187.70 269.58 189.24L269.58 191.59L261.33 191.59L261.33 192.84Q261.33 194.30 262.17 195.16Q263.01 196.01 264.40 196.01Q265.60 196.01 266.38 195.54Q267.16 195.07 267.33 194.28L269.49 194.28Q269.27 195.94 267.88 196.91Q266.49 197.88 264.40 197.88M261.33 189.24L261.33 189.91L267.47 189.91L267.47 189.24Q267.47 187.68 266.67 186.83Q265.86 185.98 264.40 185.98Q262.94 185.98 262.13 186.83Q261.33 187.68 261.33 189.24" fill="white" fill-opacity="0.7"/>
<path d="M275.97 201.96L273.81 201.96L273.81 184.44L275.97 184.44L275.97 186.96L275.99 186.96Q276.16 185.66 277.12 184.93Q278.08 184.20 279.57 184.20Q281.56 184.20 282.74 185.51Q283.91 186.82 283.91 189.10L283.91 192.96Q283.91 195.24 282.74 196.56Q281.56 197.88 279.57 197.88Q278.08 197.88 277.12 197.14Q276.16 196.39 275.99 195.12L275.92 195.12L275.97 198.12L275.97 201.96M278.85 196.01Q280.22 196.01 280.98 195.29Q281.75 194.57 281.75 192.96L281.75 189.12Q281.75 187.49 280.98 186.78Q280.22 186.07 278.85 186.07Q277.53 186.07 276.75 186.91Q275.97 187.75 275.97 189.24L275.97 192.84Q275.97 194.33 276.75 195.17Q277.53 196.01 278.85 196.01" fill="white" fill-opacity="0.7"/>
<path d="M298.36 197.64L294.52 197.64Q292.89 197.64 291.90 196.69Q290.92 195.74 290.92 194.16L290.92 186.41L287.13 186.41L287.13 184.44L290.92 184.44L290.92 180.72L293.08 180.72L293.08 184.44L298.48 184.44L298.48 186.41L293.08 186.41L293.08 194.16Q293.08 194.83 293.48 195.25Q293.87 195.67 294.52 195.67L298.36 195.67" fill="white" fill-opacity="0.7"/>
<path d="M322 197.83Q319.62 197.83 318.22 196.44Q316.82 195.05 316.82 192.55L316.82 189.53Q316.82 187.01 318.21 185.63Q319.60 184.25 322 184.25Q324.40 184.25 325.79 185.63Q327.18 187.01 327.18 189.53L327.18 192.55Q327.18 195.05 325.78 196.44Q324.38 197.83 322 197.83M322 195.91Q323.42 195.91 324.22 195.12Q325.02 194.33 325.02 192.79L325.02 189.29Q325.02 187.75 324.22 186.96Q323.42 186.17 322 186.17Q320.61 186.17 319.79 186.96Q318.98 187.75 318.98 189.29L318.98 192.79Q318.98 194.33 319.79 195.12Q320.61 195.91 322 195.91" fill="white" fill-opacity="0.7"/>
<path d="M336.52 197.64L334.36 197.64L334.36 188.21L330.52 188.21L330.52 186.24L334.36 186.24L334.36 183.48Q334.36 181.92 335.34 181.02Q336.33 180.12 338.06 180.12L341.92 180.12L341.92 182.09L338.06 182.09Q336.52 182.09 336.52 183.48L336.52 186.24L341.92 186.24L341.92 188.21L336.52 188.21" fill="white" fill-opacity="0.7"/>
<path d="M362.37 197.64L360.23 197.64L360.23 180.12L365.63 180.12Q367.19 180.12 368.37 180.76Q369.54 181.39 370.19 182.52Q370.84 183.65 370.84 185.16Q370.84 186.94 369.93 188.21Q369.02 189.48 367.50 189.98L371.08 197.64L368.70 197.64L365.27 190.20L362.37 190.20L362.37 197.64M362.37 182.06L362.37 188.26L365.63 188.26Q366.98 188.26 367.79 187.40Q368.61 186.55 368.61 185.16Q368.61 183.74 367.79 182.90Q366.98 182.06 365.63 182.06" fill="white" fill-opacity="0.7"/>
<path d="M379.60 197.88Q377.27 197.88 375.84 196.48Q374.42 195.07 374.42 192.60L374.42 189.48Q374.42 187.01 375.84 185.60Q377.27 184.20 379.60 184.20Q381.16 184.20 382.32 184.82Q383.49 185.45 384.14 186.58Q384.78 187.70 384.78 189.24L384.78 191.59L376.53 191.59L376.53 192.84Q376.53 194.30 377.37 195.16Q378.21 196.01 379.60 196.01Q380.80 196.01 381.58 195.54Q382.36 195.07 382.53 194.28L384.69 194.28Q384.47 195.94 383.08 196.91Q381.69 197.88 379.60 197.88M376.53 189.24L376.53 189.91L382.67 189.91L382.67 189.24Q382.67 187.68 381.87 186.83Q381.06 185.98 379.60 185.98Q378.14 185.98 377.33 186.83Q376.53 187.68 376.53 189.24" fill="white" fill-opacity="0.7"/>
<path d="M394.36 201.96L390.66 201.96L390.66 199.99L394.38 199.99Q395.51 199.99 396.16 199.36Q396.81 198.72 396.81 197.64L396.81 196.44L396.86 194.28L396.78 194.28Q396.59 195.46 395.66 196.09Q394.72 196.73 393.30 196.73Q391.26 196.73 390.09 195.43Q388.91 194.14 388.91 191.88L388.91 189.10Q388.91 186.84 390.09 185.52Q391.26 184.20 393.30 184.20Q394.72 184.20 395.66 184.87Q396.59 185.54 396.78 186.72L396.83 186.72L396.83 184.44L398.97 184.44L398.97 197.64Q398.97 199.63 397.73 200.80Q396.50 201.96 394.36 201.96M393.95 194.93Q395.30 194.93 396.06 194.09Q396.83 193.25 396.83 191.76L396.83 189.24Q396.83 187.75 396.06 186.91Q395.30 186.07 393.95 186.07Q392.58 186.07 391.83 186.86Q391.07 187.66 391.07 189L391.07 192Q391.07 193.34 391.83 194.14Q392.58 194.93 393.95 194.93" fill="white" fill-opacity="0.7"/>
<path d="M414.52 197.64L403.24 197.64L403.24 195.67L407.92 195.67L407.92 186.41L403.72 186.41L403.72 184.44L410.08 184.44L410.08 195.67L414.52 195.67L414.52 197.64M408.76 182.06Q407.97 182.06 407.51 181.66Q407.06 181.25 407.06 180.55Q407.06 179.83 407.51 179.41Q407.97 178.99 408.76 178.99Q409.55 178.99 410.01 179.41Q410.46 179.83 410.46 180.55Q410.46 181.25 410.01 181.66Q409.55 182.06 408.76 182.06" fill="white" fill-opacity="0.7"/>
<path d="M423.33 197.83L422.27 197.83Q420.06 197.83 418.85 196.84Q417.64 195.84 417.64 194.02L419.80 194.02Q419.80 194.93 420.45 195.44Q421.10 195.96 422.27 195.96L423.33 195.96Q424.53 195.96 425.19 195.43Q425.85 194.90 425.85 193.94Q425.85 192.24 424.29 192.02L420.64 191.50Q419.30 191.30 418.55 190.38Q417.81 189.46 417.81 187.94Q417.81 186.22 419 185.23Q420.18 184.25 422.27 184.25L423.33 184.25Q425.25 184.25 426.46 185.20Q427.67 186.14 427.77 187.68L425.58 187.68Q425.54 186.98 424.92 186.53Q424.31 186.07 423.33 186.07L422.27 186.07Q421.17 186.07 420.54 186.58Q419.92 187.08 419.92 187.94Q419.92 189.34 421.19 189.53L424.60 190.01Q427.96 190.49 427.96 193.94Q427.96 195.79 426.75 196.81Q425.54 197.83 423.33 197.83" fill="white" fill-opacity="0.7"/>
<path d="M442.36 197.64L438.52 197.64Q436.89 197.64 435.90 196.69Q434.92 195.74 434.92 194.16L434.92 186.41L431.13 186.41L431.13 184.44L434.92 184.44L434.92 180.72L437.08 180.72L437.08 184.44L442.48 184.44L442.48 186.41L437.08 186.41L437.08 194.16Q437.08 194.83 437.48 195.25Q437.87 195.67 438.52 195.67L442.36 195.67" fill="white" fill-opacity="0.7"/>
<path d="M449.25 197.64L447.09 197.64L447.09 184.44L449.25 184.44L449.25 186.96L449.30 186.96Q449.46 185.69 450.38 184.94Q451.29 184.20 452.82 184.20Q454.89 184.20 456 185.44Q457.12 186.67 457.12 188.95L457.12 190.08L454.96 190.08L454.96 188.95Q454.96 186.07 452.15 186.07Q450.74 186.07 449.99 186.89Q449.25 187.70 449.25 189.24" fill="white" fill-opacity="0.7"/>
<path d="M464.85 197.88Q462.81 197.88 461.61 196.74Q460.41 195.60 460.41 193.75Q460.41 192.53 460.96 191.62Q461.51 190.70 462.50 190.19Q463.48 189.67 464.75 189.67L468.83 189.67L468.83 188.64Q468.83 186.07 466.02 186.07Q464.78 186.07 464.01 186.53Q463.24 186.98 463.19 187.80L461.03 187.80Q461.15 186.24 462.48 185.22Q463.82 184.20 466.02 184.20Q468.42 184.20 469.71 185.35Q470.99 186.50 470.99 188.57L470.99 197.64L468.86 197.64L468.86 195.24L468.81 195.24Q468.62 196.46 467.58 197.17Q466.55 197.88 464.85 197.88M465.38 196.06Q466.96 196.06 467.90 195.29Q468.83 194.52 468.83 193.20L468.83 191.35L464.99 191.35Q463.94 191.35 463.28 191.99Q462.62 192.62 462.62 193.68Q462.62 194.78 463.35 195.42Q464.08 196.06 465.38 196.06" fill="white" fill-opacity="0.7"/>
<path d="M485.56 197.64L481.72 197.64Q480.09 197.64 479.10 196.69Q478.12 195.74 478.12 194.16L478.12 186.41L474.33 186.41L474.33 184.44L478.12 184.44L478.12 180.72L480.28 180.72L480.28 184.44L485.68 184.44L485.68 186.41L480.28 186.41L480.28 194.16Q480.28 194.83 480.68 195.25Q481.07 195.67 481.72 195.67L485.56 195.67" fill="white" fill-opacity="0.7"/>
<path d="M500.92 197.64L489.64 197.64L489.64 195.67L494.32 195.67L494.32 186.41L490.12 186.41L490.12 184.44L496.48 184.44L496.48 195.67L500.92 195.67L500.92 197.64M495.16 182.06Q494.37 182.06 493.91 181.66Q493.46 181.25 493.46 180.55Q493.46 179.83 493.91 179.41Q494.37 178.99 495.16 178.99Q495.95 178.99 496.41 179.41Q496.86 179.83 496.86 180.55Q496.86 181.25 496.41 181.66Q495.95 182.06 495.16 182.06" fill="white" fill-opacity="0.7"/>
<path d="M509.20 197.83Q506.82 197.83 505.42 196.44Q504.02 195.05 504.02 192.55L504.02 189.53Q504.02 187.01 505.41 185.63Q506.80 184.25 509.20 184.25Q511.60 184.25 512.99 185.63Q514.38 187.01 514.38 189.53L514.38 192.55Q514.38 195.05 512.98 196.44Q511.58 197.83 509.20 197.83M509.20 195.91Q510.62 195.91 511.42 195.12Q512.22 194.33 512.22 192.79L512.22 189.29Q512.22 187.75 511.42 186.96Q510.62 186.17 509.20 186.17Q507.81 186.17 506.99 186.96Q506.18 187.75 506.18 189.29L506.18 192.79Q506.18 194.33 506.99 195.12Q507.81 195.91 509.20 195.91" fill="white" fill-opacity="0.7"/>
<path d="M520.77 197.64L518.61 197.64L518.61 184.44L520.77 184.44L520.77 186.96L520.79 186.96Q520.96 185.64 521.87 184.92Q522.78 184.20 524.30 184.20Q526.29 184.20 527.46 185.42Q528.64 186.65 528.64 188.76L528.64 197.64L526.48 197.64L526.48 189.14Q526.48 187.63 525.72 186.83Q524.97 186.02 523.67 186.02Q522.33 186.02 521.55 186.86Q520.77 187.70 520.77 189.24" fill="white" fill-opacity="0.7"/>
<path d="M550.36 197.86Q548.25 197.86 547.02 196.62Q545.80 195.38 545.80 193.27L545.80 191.90Q545.80 189.98 546.88 188.83Q547.96 187.68 549.78 187.58L549.11 186.72Q547.82 185.02 547.82 183.70Q547.82 181.99 548.97 180.94Q550.12 179.88 551.97 179.88Q553.29 179.88 554.28 180.46Q555.28 181.03 555.84 182.05Q556.41 183.07 556.41 184.44L554.30 184.44Q554.30 183.24 553.66 182.48Q553.02 181.73 551.97 181.73Q551.08 181.73 550.52 182.28Q549.95 182.83 549.95 183.74Q549.95 184.68 550.65 185.57L555.33 191.62L557.51 188.88L559.91 188.88L556.48 193.10L559.96 197.64L557.58 197.64L555.26 194.57L554.22 195.86Q553.41 196.87 552.41 197.36Q551.42 197.86 550.36 197.86M550.50 195.91Q551.87 195.91 552.83 194.69L554.08 193.10L551.08 189.26L550.36 189.26Q549.23 189.26 548.57 189.97Q547.91 190.68 547.91 191.90L547.91 193.27Q547.91 194.50 548.62 195.20Q549.33 195.91 550.50 195.91" fill="white" fill-opacity="0.7"/>
<path d="M581.30 197.88Q578.75 197.88 577.24 196.54Q575.73 195.19 575.73 192.84L577.89 192.84Q577.89 194.30 578.82 195.13Q579.76 195.96 581.30 195.96Q582.78 195.96 583.67 195.10Q584.56 194.23 584.56 192.84Q584.56 191.78 584 191Q583.43 190.22 582.38 189.94L579.71 189.19Q578.06 188.71 577.11 187.48Q576.16 186.24 576.16 184.56Q576.16 183.17 576.78 182.11Q577.41 181.06 578.54 180.47Q579.66 179.88 581.13 179.88Q582.62 179.88 583.76 180.47Q584.90 181.06 585.54 182.10Q586.19 183.14 586.19 184.51L584.03 184.51Q584.03 183.31 583.22 182.56Q582.40 181.80 581.13 181.80Q579.86 181.80 579.06 182.56Q578.27 183.31 578.27 184.51Q578.27 185.47 578.79 186.16Q579.30 186.84 580.24 187.10L582.98 187.87Q584.73 188.35 585.70 189.68Q586.67 191.02 586.67 192.84Q586.67 195.14 585.21 196.51Q583.74 197.88 581.30 197.88" fill="white" fill-opacity="0.7"/>
<path d="M600.76 197.64L596.92 197.64Q595.29 197.64 594.30 196.69Q593.32 195.74 593.32 194.16L593.32 186.41L589.53 186.41L589.53 184.44L593.32 184.44L593.32 180.72L595.48 180.72L595.48 184.44L600.88 184.44L600.88 186.41L595.48 186.41L595.48 194.16Q595.48 194.83 595.88 195.25Q596.27 195.67 596.92 195.67L600.76 195.67" fill="white" fill-opacity="0.7"/>
<path d="M608.85 197.88Q606.81 197.88 605.61 196.74Q604.41 195.60 604.41 193.75Q604.41 192.53 604.96 191.62Q605.51 190.70 606.50 190.19Q607.48 189.67 608.75 189.67L612.83 189.67L612.83 188.64Q612.83 186.07 610.02 186.07Q608.78 186.07 608.01 186.53Q607.24 186.98 607.19 187.80L605.03 187.80Q605.15 186.24 606.48 185.22Q607.82 184.20 610.02 184.20Q612.42 184.20 613.71 185.35Q614.99 186.50 614.99 188.57L614.99 197.64L612.86 197.64L612.86 195.24L612.81 195.24Q612.62 196.46 611.58 197.17Q610.55 197.88 608.85 197.88M609.38 196.06Q610.96 196.06 611.90 195.29Q612.83 194.52 612.83 193.20L612.83 191.35L608.99 191.35Q607.94 191.35 607.28 191.99Q606.62 192.62 606.62 193.68Q606.62 194.78 607.35 195.42Q608.08 196.06 609.38 196.06" fill="white" fill-opacity="0.7"/>
<path d="M620.66 197.64L618.64 197.64L618.64 184.44L620.51 184.44L620.51 186.19L620.56 186.19Q620.68 185.30 621.27 184.75Q621.86 184.20 622.77 184.20Q623.63 184.20 624.23 184.70Q624.83 185.21 625.10 186.07L625.12 186.07Q625.29 185.21 625.88 184.70Q626.46 184.20 627.38 184.20Q628.65 184.20 629.40 185.15Q630.16 186.10 630.16 187.61L630.16 197.64L628.14 197.64L628.14 187.58Q628.14 186.79 627.76 186.32Q627.38 185.86 626.70 185.86Q626.06 185.86 625.67 186.31Q625.29 186.77 625.29 187.56L625.29 197.64L623.51 197.64L623.51 187.58Q623.51 186.79 623.13 186.32Q622.74 185.86 622.10 185.86Q621.42 185.86 621.04 186.31Q620.66 186.77 620.66 187.56" fill="white" fill-opacity="0.7"/>
<path d="M635.97 201.96L633.81 201.96L633.81 184.44L635.97 184.44L635.97 186.96L635.99 186.96Q636.16 185.66 637.12 184.93Q638.08 184.20 639.57 184.20Q641.56 184.20 642.74 185.51Q643.91 186.82 643.91 189.10L643.91 192.96Q643.91 195.24 642.74 196.56Q641.56 197.88 639.57 197.88Q638.08 197.88 637.12 197.14Q636.16 196.39 635.99 195.12L635.92 195.12L635.97 198.12L635.97 201.96M638.85 196.01Q640.22 196.01 640.98 195.29Q641.75 194.57 641.75 192.96L641.75 189.12Q641.75 187.49 640.98 186.78Q640.22 186.07 638.85 186.07Q637.53 186.07 636.75 186.91Q635.97 187.75 635.97 189.24L635.97 192.84Q635.97 194.33 636.75 195.17Q637.53 196.01 638.85 196.01" fill="white" fill-opacity="0.7"/>
<path d="M653.73 197.83L652.67 197.83Q650.46 197.83 649.25 196.84Q648.04 195.84 648.04 194.02L650.20 194.02Q650.20 194.93 650.85 195.44Q651.50 195.96 652.67 195.96L653.73 195.96Q654.93 195.96 655.59 195.43Q656.25 194.90 656.25 193.94Q656.25 192.24 654.69 192.02L651.04 191.50Q649.70 191.30 648.95 190.38Q648.21 189.46 648.21 187.94Q648.21 186.22 649.40 185.23Q650.58 184.25 652.67 184.25L653.73 184.25Q655.65 184.25 656.86 185.20Q658.07 186.14 658.17 187.68L655.98 187.68Q655.94 186.98 655.32 186.53Q654.71 186.07 653.73 186.07L652.67 186.07Q651.57 186.07 650.94 186.58Q650.32 187.08 650.32 187.94Q650.32 189.34 651.59 189.53L655 190.01Q658.36 190.49 658.36 193.94Q658.36 195.79 657.15 196.81Q655.94 197.83 653.73 197.83" fill="white" fill-opacity="0.7"/>
<path d="M688.12 197.64L676.84 197.64L676.84 195.67L681.52 195.67L681.52 186.41L677.32 186.41L677.32 184.44L683.68 184.44L683.68 195.67L688.12 195.67L688.12 197.64M682.36 182.06Q681.57 182.06 681.11 181.66Q680.66 181.25 680.66 180.55Q680.66 179.83 681.11 179.41Q681.57 178.99 682.36 178.99Q683.15 178.99 683.61 179.41Q684.06 179.83 684.06 180.55Q684.06 181.25 683.61 181.66Q683.15 182.06 682.36 182.06" fill="white" fill-opacity="0.7"/>
<path d="M696.93 197.83L695.87 197.83Q693.66 197.83 692.45 196.84Q691.24 195.84 691.24 194.02L693.40 194.02Q693.40 194.93 694.05 195.44Q694.70 195.96 695.87 195.96L696.93 195.96Q698.13 195.96 698.79 195.43Q699.45 194.90 699.45 193.94Q699.45 192.24 697.89 192.02L694.24 191.50Q692.90 191.30 692.15 190.38Q691.41 189.46 691.41 187.94Q691.41 186.22 692.60 185.23Q693.78 184.25 695.87 184.25L696.93 184.25Q698.85 184.25 700.06 185.20Q701.27 186.14 701.37 187.68L699.18 187.68Q699.14 186.98 698.52 186.53Q697.91 186.07 696.93 186.07L695.87 186.07Q694.77 186.07 694.14 186.58Q693.52 187.08 693.52 187.94Q693.52 189.34 694.79 189.53L698.20 190.01Q701.56 190.49 701.56 193.94Q701.56 195.79 700.35 196.81Q699.14 197.83 696.93 197.83" fill="white" fill-opacity="0.7"/>
<path d="M711.33 197.83L710.27 197.83Q708.06 197.83 706.85 196.84Q705.64 195.84 705.64 194.02L707.80 194.02Q707.80 194.93 708.45 195.44Q709.10 195.96 710.27 195.96L711.33 195.96Q712.53 195.96 713.19 195.43Q713.85 194.90 713.85 193.94Q713.85 192.24 712.29 192.02L708.64 191.50Q707.30 191.30 706.55 190.38Q705.81 189.46 705.81 187.94Q705.81 186.22 707 185.23Q708.18 184.25 710.27 184.25L711.33 184.25Q713.25 184.25 714.46 185.20Q715.67 186.14 715.77 187.68L713.58 187.68Q713.54 186.98 712.92 186.53Q712.31 186.07 711.33 186.07L710.27 186.07Q709.17 186.07 708.54 186.58Q707.92 187.08 707.92 187.94Q707.92 189.34 709.19 189.53L712.60 190.01Q715.96 190.49 715.96 193.94Q715.96 195.79 714.75 196.81Q713.54 197.83 711.33 197.83" fill="white" fill-opacity="0.7"/>
<path d="M725.18 197.88Q722.90 197.88 721.53 196.52Q720.16 195.17 720.16 192.84L720.16 184.44L722.32 184.44L722.32 192.84Q722.32 194.28 723.09 195.13Q723.86 195.98 725.18 195.98Q726.52 195.98 727.30 195.13Q728.08 194.28 728.08 192.84L728.08 184.44L730.24 184.44L730.24 192.84Q730.24 195.17 728.85 196.52Q727.46 197.88 725.18 197.88" fill="white" fill-opacity="0.7"/>
<path d="M739.60 197.88Q737.27 197.88 735.84 196.48Q734.42 195.07 734.42 192.60L734.42 189.48Q734.42 187.01 735.84 185.60Q737.27 184.20 739.60 184.20Q741.16 184.20 742.32 184.82Q743.49 185.45 744.14 186.58Q744.78 187.70 744.78 189.24L744.78 191.59L736.53 191.59L736.53 192.84Q736.53 194.30 737.37 195.16Q738.21 196.01 739.60 196.01Q740.80 196.01 741.58 195.54Q742.36 195.07 742.53 194.28L744.69 194.28Q744.47 195.94 743.08 196.91Q741.69 197.88 739.60 197.88M736.53 189.24L736.53 189.91L742.67 189.91L742.67 189.24Q742.67 187.68 741.87 186.83Q741.06 185.98 739.60 185.98Q738.14 185.98 737.33 186.83Q736.53 187.68 736.53 189.24" fill="white" fill-opacity="0.7"/>
<path d="M754.53 197.83L753.47 197.83Q751.26 197.83 750.05 196.84Q748.84 195.84 748.84 194.02L751 194.02Q751 194.93 751.65 195.44Q752.30 195.96 753.47 195.96L754.53 195.96Q755.73 195.96 756.39 195.43Q757.05 194.90 757.05 193.94Q757.05 192.24 755.49 192.02L751.84 191.50Q750.50 191.30 749.75 190.38Q749.01 189.46 749.01 187.94Q749.01 186.22 750.20 185.23Q751.38 184.25 753.47 184.25L754.53 184.25Q756.45 184.25 757.66 185.20Q758.87 186.14 758.97 187.68L756.78 187.68Q756.74 186.98 756.12 186.53Q755.51 186.07 754.53 186.07L753.47 186.07Q752.37 186.07 751.74 186.58Q751.12 187.08 751.12 187.94Q751.12 189.34 752.39 189.53L755.80 190.01Q759.16 190.49 759.16 193.94Q759.16 195.79 757.95 196.81Q756.74 197.83 754.53 197.83" fill="white" fill-opacity="0.7"/>
<path d="M782.03 197.88Q780.06 197.88 778.88 196.56Q777.69 195.24 777.69 192.98L777.69 189.12Q777.69 186.84 778.86 185.52Q780.04 184.20 782.03 184.20Q783.52 184.20 784.49 184.94Q785.46 185.69 785.66 186.96L785.68 186.96L785.63 183.96L785.63 180.12L787.79 180.12L787.79 197.64L785.63 197.64L785.63 195.12L785.61 195.12Q785.44 196.42 784.48 197.15Q783.52 197.88 782.03 197.88M782.75 196.01Q784.10 196.01 784.86 195.17Q785.63 194.33 785.63 192.84L785.63 189.24Q785.63 187.75 784.86 186.91Q784.10 186.07 782.75 186.07Q781.38 186.07 780.62 186.78Q779.85 187.49 779.85 189.12L779.85 192.96Q779.85 194.57 780.62 195.29Q781.38 196.01 782.75 196.01" fill="white" fill-opacity="0.7"/>
<path d="M803.32 197.64L792.04 197.64L792.04 195.67L796.72 195.67L796.72 186.41L792.52 186.41L792.52 184.44L798.88 184.44L798.88 195.67L803.32 195.67L803.32 197.64M797.56 182.06Q796.77 182.06 796.31 181.66Q795.86 181.25 795.86 180.55Q795.86 179.83 796.31 179.41Q796.77 178.99 797.56 178.99Q798.35 178.99 798.81 179.41Q799.26 179.83 799.26 180.55Q799.26 181.25 798.81 181.66Q798.35 182.06 797.56 182.06" fill="white" fill-opacity="0.7"/>
<path d="M811.96 201.96L808.26 201.96L808.26 199.99L811.98 199.99Q813.11 199.99 813.76 199.36Q814.41 198.72 814.41 197.64L814.41 196.44L814.46 194.28L814.38 194.28Q814.19 195.46 813.26 196.09Q812.32 196.73 810.90 196.73Q808.86 196.73 807.69 195.43Q806.51 194.14 806.51 191.88L806.51 189.10Q806.51 186.84 807.69 185.52Q808.86 184.20 810.90 184.20Q812.32 184.20 813.26 184.87Q814.19 185.54 814.38 186.72L814.43 186.72L814.43 184.44L816.57 184.44L816.57 197.64Q816.57 199.63 815.33 200.80Q814.10 201.96 811.96 201.96M811.55 194.93Q812.90 194.93 813.66 194.09Q814.43 193.25 814.43 191.76L814.43 189.24Q814.43 187.75 813.66 186.91Q812.90 186.07 811.55 186.07Q810.18 186.07 809.43 186.86Q808.67 187.66 808.67 189L808.67 192Q808.67 193.34 809.43 194.14Q810.18 194.93 811.55 194.93" fill="white" fill-opacity="0.7"/>
<path d="M832.12 197.64L820.84 197.64L820.84 195.67L825.52 195.67L825.52 186.41L821.32 186.41L821.32 184.44L827.68 184.44L827.68 195.67L832.12 195.67L832.12 197.64M826.36 182.06Q825.57 182.06 825.11 181.66Q824.66 181.25 824.66 180.55Q824.66 179.83 825.11 179.41Q825.57 178.99 826.36 178.99Q827.15 178.99 827.61 179.41Q828.06 179.83 828.06 180.55Q828.06 181.25 827.61 181.66Q827.15 182.06 826.36 182.06" fill="white" fill-opacity="0.7"/>
<path d="M845.56 197.64L841.72 197.64Q840.09 197.64 839.10 196.69Q838.12 195.74 838.12 194.16L838.12 186.41L834.33 186.41L834.33 184.44L838.12 184.44L838.12 180.72L840.28 180.72L840.28 184.44L845.68 184.44L845.68 186.41L840.28 186.41L840.28 194.16Q840.28 194.83 840.68 195.25Q841.07 195.67 841.72 195.67L845.56 195.67" fill="white" fill-opacity="0.7"/>
<path d="M853.65 197.88Q851.61 197.88 850.41 196.74Q849.21 195.60 849.21 193.75Q849.21 192.53 849.76 191.62Q850.31 190.70 851.30 190.19Q852.28 189.67 853.55 189.67L857.63 189.67L857.63 188.64Q857.63 186.07 854.82 186.07Q853.58 186.07 852.81 186.53Q852.04 186.98 851.99 187.80L849.83 187.80Q849.95 186.24 851.28 185.22Q852.62 184.20 854.82 184.20Q857.22 184.20 858.51 185.35Q859.79 186.50 859.79 188.57L859.79 197.64L857.66 197.64L857.66 195.24L857.61 195.24Q857.42 196.46 856.38 197.17Q855.35 197.88 853.65 197.88M854.18 196.06Q855.76 196.06 856.70 195.29Q857.63 194.52 857.63 193.20L857.63 191.35L853.79 191.35Q852.74 191.35 852.08 191.99Q851.42 192.62 851.42 193.68Q851.42 194.78 852.15 195.42Q852.88 196.06 854.18 196.06" fill="white" fill-opacity="0.7"/>
<path d="M875.20 197.64L871.12 197.64Q869.37 197.64 868.32 196.62Q867.28 195.60 867.28 193.92L867.28 182.09L862.72 182.09L862.72 180.12L869.44 180.12L869.44 193.92Q869.44 194.74 869.90 195.20Q870.35 195.67 871.12 195.67L875.20 195.67" fill="white" fill-opacity="0.7"/>
<path d="M904 197.64L893.92 197.64L893.92 180.12L896.08 180.12L896.08 195.67L904 195.67" fill="white" fill-opacity="0.7"/>
<path d="M912.40 197.88Q910.07 197.88 908.64 196.48Q907.22 195.07 907.22 192.60L907.22 189.48Q907.22 187.01 908.64 185.60Q910.07 184.20 912.40 184.20Q913.96 184.20 915.12 184.82Q916.29 185.45 916.94 186.58Q917.58 187.70 917.58 189.24L917.58 191.59L909.33 191.59L909.33 192.84Q909.33 194.30 910.17 195.16Q911.01 196.01 912.40 196.01Q913.60 196.01 914.38 195.54Q915.16 195.07 915.33 194.28L917.49 194.28Q917.27 195.94 915.88 196.91Q914.49 197.88 912.40 197.88M909.33 189.24L909.33 189.91L915.47 189.91L915.47 189.24Q915.47 187.68 914.67 186.83Q913.86 185.98 912.40 185.98Q910.94 185.98 910.13 186.83Q909.33 187.68 909.33 189.24" fill="white" fill-opacity="0.7"/>
<path d="M925.65 197.88Q923.61 197.88 922.41 196.74Q921.21 195.60 921.21 193.75Q921.21 192.53 921.76 191.62Q922.31 190.70 923.30 190.19Q924.28 189.67 925.55 189.67L929.63 189.67L929.63 188.64Q929.63 186.07 926.82 186.07Q925.58 186.07 924.81 186.53Q924.04 186.98 923.99 187.80L921.83 187.80Q921.95 186.24 923.28 185.22Q924.62 184.20 926.82 184.20Q929.22 184.20 930.51 185.35Q931.79 186.50 931.79 188.57L931.79 197.64L929.66 197.64L929.66 195.24L929.61 195.24Q929.42 196.46 928.38 197.17Q927.35 197.88 925.65 197.88M926.18 196.06Q927.76 196.06 928.70 195.29Q929.63 194.52 929.63 193.20L929.63 191.35L925.79 191.35Q924.74 191.35 924.08 191.99Q923.42 192.62 923.42 193.68Q923.42 194.78 924.15 195.42Q924.88 196.06 926.18 196.06" fill="white" fill-opacity="0.7"/>
<path d="M942.62 197.64L939.78 197.64L935.30 184.44L937.62 184.44L940.50 193.32Q940.77 194.11 940.96 194.84Q941.15 195.58 941.25 195.98Q941.37 195.58 941.54 194.84Q941.70 194.11 941.94 193.32L944.82 184.44L947.10 184.44" fill="white" fill-opacity="0.7"/>
<path d="M955.60 197.88Q953.27 197.88 951.84 196.48Q950.42 195.07 950.42 192.60L950.42 189.48Q950.42 187.01 951.84 185.60Q953.27 184.20 955.60 184.20Q957.16 184.20 958.32 184.82Q959.49 185.45 960.14 186.58Q960.78 187.70 960.78 189.24L960.78 191.59L952.53 191.59L952.53 192.84Q952.53 194.30 953.37 195.16Q954.21 196.01 955.60 196.01Q956.80 196.01 957.58 195.54Q958.36 195.07 958.53 194.28L960.69 194.28Q960.47 195.94 959.08 196.91Q957.69 197.88 955.60 197.88M952.53 189.24L952.53 189.91L958.67 189.91L958.67 189.24Q958.67 187.68 957.87 186.83Q957.06 185.98 955.60 185.98Q954.14 185.98 953.33 186.83Q952.53 187.68 952.53 189.24" fill="white" fill-opacity="0.7"/>
<path d="M982.36 197.86Q980.25 197.86 979.02 196.62Q977.80 195.38 977.80 193.27L977.80 191.90Q977.80 189.98 978.88 188.83Q979.96 187.68 981.78 187.58L981.11 186.72Q979.82 185.02 979.82 183.70Q979.82 181.99 980.97 180.94Q982.12 179.88 983.97 179.88Q985.29 179.88 986.28 180.46Q987.28 181.03 987.84 182.05Q988.41 183.07 988.41 184.44L986.30 184.44Q986.30 183.24 985.66 182.48Q985.02 181.73 983.97 181.73Q983.08 181.73 982.52 182.28Q981.95 182.83 981.95 183.74Q981.95 184.68 982.65 185.57L987.33 191.62L989.51 188.88L991.91 188.88L988.48 193.10L991.96 197.64L989.58 197.64L987.26 194.57L986.22 195.86Q985.41 196.87 984.41 197.36Q983.42 197.86 982.36 197.86M982.50 195.91Q983.87 195.91 984.83 194.69L986.08 193.10L983.08 189.26L982.36 189.26Q981.23 189.26 980.57 189.97Q979.91 190.68 979.91 191.90L979.91 193.27Q979.91 194.50 980.62 195.20Q981.33 195.91 982.50 195.91" fill="white" fill-opacity="0.7"/>
<path d="M1019.20 197.64L1009.12 197.64L1009.12 180.12L1011.28 180.12L1011.28 195.67L1019.20 195.67" fill="white" fill-opacity="0.7"/>
<path d="M1033.72 197.64L1022.44 197.64L1022.44 195.67L1027.12 195.67L1027.12 186.41L1022.92 186.41L1022.92 184.44L1029.28 184.44L1029.28 195.67L1033.72 195.67L1033.72 197.64M1027.96 182.06Q1027.17 182.06 1026.71 181.66Q1026.26 181.25 1026.26 180.55Q1026.26 179.83 1026.71 179.41Q1027.17 178.99 1027.96 178.99Q1028.75 178.99 1029.21 179.41Q1029.66 179.83 1029.66 180.55Q1029.66 181.25 1029.21 181.66Q1028.75 182.06 1027.96 182.06" fill="white" fill-opacity="0.7"/>
<path d="M1042.19 197.88Q1039.79 197.88 1038.35 196.54Q1036.91 195.19 1036.91 192.84L1036.91 189.24Q1036.91 186.89 1038.35 185.54Q1039.79 184.20 1042.19 184.20Q1044.47 184.20 1045.88 185.42Q1047.28 186.65 1047.35 188.76L1045.19 188.76Q1045.12 187.49 1044.33 186.80Q1043.54 186.12 1042.19 186.12Q1040.78 186.12 1039.92 186.92Q1039.07 187.73 1039.07 189.22L1039.07 192.84Q1039.07 194.33 1039.92 195.14Q1040.78 195.96 1042.19 195.96Q1043.54 195.96 1044.33 195.26Q1045.12 194.57 1045.19 193.32L1047.35 193.32Q1047.28 195.43 1045.88 196.66Q1044.47 197.88 1042.19 197.88" fill="white" fill-opacity="0.7"/>
<path d="M1056.40 197.88Q1054.07 197.88 1052.64 196.48Q1051.22 195.07 1051.22 192.60L1051.22 189.48Q1051.22 187.01 1052.64 185.60Q1054.07 184.20 1056.40 184.20Q1057.96 184.20 1059.12 184.82Q1060.29 185.45 1060.94 186.58Q1061.58 187.70 1061.58 189.24L1061.58 191.59L1053.33 191.59L1053.33 192.84Q1053.33 194.30 1054.17 195.16Q1055.01 196.01 1056.40 196.01Q1057.60 196.01 1058.38 195.54Q1059.16 195.07 1059.33 194.28L1061.49 194.28Q1061.27 195.94 1059.88 196.91Q1058.49 197.88 1056.40 197.88M1053.33 189.24L1053.33 189.91L1059.47 189.91L1059.47 189.24Q1059.47 187.68 1058.67 186.83Q1057.86 185.98 1056.40 185.98Q1054.94 185.98 1054.13 186.83Q1053.33 187.68 1053.33 189.24" fill="white" fill-opacity="0.7"/>
<path d="M1067.97 197.64L1065.81 197.64L1065.81 184.44L1067.97 184.44L1067.97 186.96L1067.99 186.96Q1068.16 185.64 1069.07 184.92Q1069.98 184.20 1071.50 184.20Q1073.49 184.20 1074.66 185.42Q1075.84 186.65 1075.84 188.76L1075.84 197.64L1073.68 197.64L1073.68 189.14Q1073.68 187.63 1072.92 186.83Q1072.17 186.02 1070.87 186.02Q1069.53 186.02 1068.75 186.86Q1067.97 187.70 1067.97 189.24" fill="white" fill-opacity="0.7"/>
<path d="M1085.73 197.83L1084.67 197.83Q1082.46 197.83 1081.25 196.84Q1080.04 195.84 1080.04 194.02L1082.20 194.02Q1082.20 194.93 1082.85 195.44Q1083.50 195.96 1084.67 195.96L1085.73 195.96Q1086.93 195.96 1087.59 195.43Q1088.25 194.90 1088.25 193.94Q1088.25 192.24 1086.69 192.02L1083.04 191.50Q1081.70 191.30 1080.95 190.38Q1080.21 189.46 1080.21 187.94Q1080.21 186.22 1081.40 185.23Q1082.58 184.25 1084.67 184.25L1085.73 184.25Q1087.65 184.25 1088.86 185.20Q1090.07 186.14 1090.17 187.68L1087.98 187.68Q1087.94 186.98 1087.32 186.53Q1086.71 186.07 1085.73 186.07L1084.67 186.07Q1083.57 186.07 1082.94 186.58Q1082.32 187.08 1082.32 187.94Q1082.32 189.34 1083.59 189.53L1087 190.01Q1090.36 190.49 1090.36 193.94Q1090.36 195.79 1089.15 196.81Q1087.94 197.83 1085.73 197.83" fill="white" fill-opacity="0.7"/>
<path d="M1099.60 197.88Q1097.27 197.88 1095.84 196.48Q1094.42 195.07 1094.42 192.60L1094.42 189.48Q1094.42 187.01 1095.84 185.60Q1097.27 184.20 1099.60 184.20Q1101.16 184.20 1102.32 184.82Q1103.49 185.45 1104.14 186.58Q1104.78 187.70 1104.78 189.24L1104.78 191.59L1096.53 191.59L1096.53 192.84Q1096.53 194.30 1097.37 195.16Q1098.21 196.01 1099.60 196.01Q1100.80 196.01 1101.58 195.54Q1102.36 195.07 1102.53 194.28L1104.69 194.28Q1104.47 195.94 1103.08 196.91Q1101.69 197.88 1099.60 197.88M1096.53 189.24L1096.53 189.91L1102.67 189.91L1102.67 189.24Q1102.67 187.68 1101.87 186.83Q1101.06 185.98 1099.60 185.98Q1098.14 185.98 1097.33 186.83Q1096.53 187.68 1096.53 189.24" fill="white" fill-opacity="0.7"/>
<path d="M77.39 229.88Q74.99 229.88 73.60 228.54Q72.21 227.19 72.21 224.84L72.21 216.92Q72.21 214.57 73.60 213.22Q74.99 211.88 77.39 211.88Q79.74 211.88 81.14 213.24Q82.53 214.59 82.53 216.92L80.37 216.92Q80.37 215.43 79.59 214.63Q78.81 213.82 77.39 213.82Q75.98 213.82 75.17 214.63Q74.37 215.43 74.37 216.92L74.37 224.84Q74.37 226.33 75.17 227.13Q75.98 227.94 77.39 227.94Q78.81 227.94 79.59 227.13Q80.37 226.33 80.37 224.84L82.53 224.84Q82.53 227.17 81.14 228.52Q79.74 229.88 77.39 229.88" fill="white" fill-opacity="0.7"/>
<path d="M91.60 229.88Q89.27 229.88 87.84 228.48Q86.42 227.07 86.42 224.60L86.42 221.48Q86.42 219.01 87.84 217.60Q89.27 216.20 91.60 216.20Q93.16 216.20 94.32 216.82Q95.49 217.45 96.14 218.58Q96.78 219.70 96.78 221.24L96.78 223.59L88.53 223.59L88.53 224.84Q88.53 226.30 89.37 227.16Q90.21 228.01 91.60 228.01Q92.80 228.01 93.58 227.54Q94.36 227.07 94.53 226.28L96.69 226.28Q96.47 227.94 95.08 228.91Q93.69 229.88 91.60 229.88M88.53 221.24L88.53 221.91L94.67 221.91L94.67 221.24Q94.67 219.68 93.87 218.83Q93.06 217.98 91.60 217.98Q90.14 217.98 89.33 218.83Q88.53 219.68 88.53 221.24" fill="white" fill-opacity="0.7"/>
<path d="M103.65 229.64L101.49 229.64L101.49 216.44L103.65 216.44L103.65 218.96L103.70 218.96Q103.86 217.69 104.78 216.94Q105.69 216.20 107.22 216.20Q109.29 216.20 110.40 217.44Q111.52 218.67 111.52 220.95L111.52 222.08L109.36 222.08L109.36 220.95Q109.36 218.07 106.55 218.07Q105.14 218.07 104.39 218.89Q103.65 219.70 103.65 221.24" fill="white" fill-opacity="0.7"/>
<path d="M125.56 229.64L121.72 229.64Q120.09 229.64 119.10 228.69Q118.12 227.74 118.12 226.16L118.12 218.41L114.33 218.41L114.33 216.44L118.12 216.44L118.12 212.72L120.28 212.72L120.28 216.44L125.68 216.44L125.68 218.41L120.28 218.41L120.28 226.16Q120.28 226.83 120.68 227.25Q121.07 227.67 121.72 227.67L125.56 227.67" fill="white" fill-opacity="0.7"/>
<path d="M140.92 229.64L129.64 229.64L129.64 227.67L134.32 227.67L134.32 218.41L130.12 218.41L130.12 216.44L136.48 216.44L136.48 227.67L140.92 227.67L140.92 229.64M135.16 214.06Q134.37 214.06 133.91 213.66Q133.46 213.25 133.46 212.55Q133.46 211.83 133.91 211.41Q134.37 210.99 135.16 210.99Q135.95 210.99 136.41 211.41Q136.86 211.83 136.86 212.55Q136.86 213.25 136.41 213.66Q135.95 214.06 135.16 214.06" fill="white" fill-opacity="0.7"/>
<path d="M149.32 229.64L147.16 229.64L147.16 220.21L143.32 220.21L143.32 218.24L147.16 218.24L147.16 215.48Q147.16 213.92 148.14 213.02Q149.13 212.12 150.86 212.12L154.72 212.12L154.72 214.09L150.86 214.09Q149.32 214.09 149.32 215.48L149.32 218.24L154.72 218.24L154.72 220.21L149.32 220.21" fill="white" fill-opacity="0.7"/>
<path d="M169.72 229.64L158.44 229.64L158.44 227.67L163.12 227.67L163.12 218.41L158.92 218.41L158.92 216.44L165.28 216.44L165.28 227.67L169.72 227.67L169.72 229.64M163.96 214.06Q163.17 214.06 162.71 213.66Q162.26 213.25 162.26 212.55Q162.26 211.83 162.71 211.41Q163.17 210.99 163.96 210.99Q164.75 210.99 165.21 211.41Q165.66 211.83 165.66 212.55Q165.66 213.25 165.21 213.66Q164.75 214.06 163.96 214.06" fill="white" fill-opacity="0.7"/>
<path d="M178.19 229.88Q175.79 229.88 174.35 228.54Q172.91 227.19 172.91 224.84L172.91 221.24Q172.91 218.89 174.35 217.54Q175.79 216.20 178.19 216.20Q180.47 216.20 181.88 217.42Q183.28 218.65 183.35 220.76L181.19 220.76Q181.12 219.49 180.33 218.80Q179.54 218.12 178.19 218.12Q176.78 218.12 175.92 218.92Q175.07 219.73 175.07 221.22L175.07 224.84Q175.07 226.33 175.92 227.14Q176.78 227.96 178.19 227.96Q179.54 227.96 180.33 227.26Q181.12 226.57 181.19 225.32L183.35 225.32Q183.28 227.43 181.88 228.66Q180.47 229.88 178.19 229.88" fill="white" fill-opacity="0.7"/>
<path d="M191.25 229.88Q189.21 229.88 188.01 228.74Q186.81 227.60 186.81 225.75Q186.81 224.53 187.36 223.62Q187.91 222.70 188.90 222.19Q189.88 221.67 191.15 221.67L195.23 221.67L195.23 220.64Q195.23 218.07 192.42 218.07Q191.18 218.07 190.41 218.53Q189.64 218.98 189.59 219.80L187.43 219.80Q187.55 218.24 188.88 217.22Q190.22 216.20 192.42 216.20Q194.82 216.20 196.11 217.35Q197.39 218.50 197.39 220.57L197.39 229.64L195.26 229.64L195.26 227.24L195.21 227.24Q195.02 228.46 193.98 229.17Q192.95 229.88 191.25 229.88M191.78 228.06Q193.36 228.06 194.30 227.29Q195.23 226.52 195.23 225.20L195.23 223.35L191.39 223.35Q190.34 223.35 189.68 223.99Q189.02 224.62 189.02 225.68Q189.02 226.78 189.75 227.42Q190.48 228.06 191.78 228.06" fill="white" fill-opacity="0.7"/>
<path d="M211.96 229.64L208.12 229.64Q206.49 229.64 205.50 228.69Q204.52 227.74 204.52 226.16L204.52 218.41L200.73 218.41L200.73 216.44L204.52 216.44L204.52 212.72L206.68 212.72L206.68 216.44L212.08 216.44L212.08 218.41L206.68 218.41L206.68 226.16Q206.68 226.83 207.08 227.25Q207.47 227.67 208.12 227.67L211.96 227.67" fill="white" fill-opacity="0.7"/>
<path d="M221.20 229.88Q218.87 229.88 217.44 228.48Q216.02 227.07 216.02 224.60L216.02 221.48Q216.02 219.01 217.44 217.60Q218.87 216.20 221.20 216.20Q222.76 216.20 223.92 216.82Q225.09 217.45 225.74 218.58Q226.38 219.70 226.38 221.24L226.38 223.59L218.13 223.59L218.13 224.84Q218.13 226.30 218.97 227.16Q219.81 228.01 221.20 228.01Q222.40 228.01 223.18 227.54Q223.96 227.07 224.13 226.28L226.29 226.28Q226.07 227.94 224.68 228.91Q223.29 229.88 221.20 229.88M218.13 221.24L218.13 221.91L224.27 221.91L224.27 221.24Q224.27 219.68 223.47 218.83Q222.66 217.98 221.20 217.98Q219.74 217.98 218.93 218.83Q218.13 219.68 218.13 221.24" fill="white" fill-opacity="0.7"/>
<path d="M236.13 229.83L235.07 229.83Q232.86 229.83 231.65 228.84Q230.44 227.84 230.44 226.02L232.60 226.02Q232.60 226.93 233.25 227.44Q233.90 227.96 235.07 227.96L236.13 227.96Q237.33 227.96 237.99 227.43Q238.65 226.90 238.65 225.94Q238.65 224.24 237.09 224.02L233.44 223.50Q232.10 223.30 231.35 222.38Q230.61 221.46 230.61 219.94Q230.61 218.22 231.80 217.23Q232.98 216.25 235.07 216.25L236.13 216.25Q238.05 216.25 239.26 217.20Q240.47 218.14 240.57 219.68L238.38 219.68Q238.34 218.98 237.72 218.53Q237.11 218.07 236.13 218.07L235.07 218.07Q233.97 218.07 233.34 218.58Q232.72 219.08 232.72 219.94Q232.72 221.34 233.99 221.53L237.40 222.01Q240.76 222.49 240.76 225.94Q240.76 227.79 239.55 228.81Q238.34 229.83 236.13 229.83" fill="white" fill-opacity="0.7"/>
<path d="M265.82 229.64L262.98 229.64L258.50 216.44L260.82 216.44L263.70 225.32Q263.97 226.11 264.16 226.84Q264.35 227.58 264.45 227.98Q264.57 227.58 264.74 226.84Q264.90 226.11 265.14 225.32L268.02 216.44L270.30 216.44" fill="white" fill-opacity="0.7"/>
<path d="M284.92 229.64L273.64 229.64L273.64 227.67L278.32 227.67L278.32 218.41L274.12 218.41L274.12 216.44L280.48 216.44L280.48 227.67L284.92 227.67L284.92 229.64M279.16 214.06Q278.37 214.06 277.91 213.66Q277.46 213.25 277.46 212.55Q277.46 211.83 277.91 211.41Q278.37 210.99 279.16 210.99Q279.95 210.99 280.41 211.41Q280.86 211.83 280.86 212.55Q280.86 213.25 280.41 213.66Q279.95 214.06 279.16 214.06" fill="white" fill-opacity="0.7"/>
<path d="M292.05 229.88Q290.01 229.88 288.81 228.74Q287.61 227.60 287.61 225.75Q287.61 224.53 288.16 223.62Q288.71 222.70 289.70 222.19Q290.68 221.67 291.95 221.67L296.03 221.67L296.03 220.64Q296.03 218.07 293.22 218.07Q291.98 218.07 291.21 218.53Q290.44 218.98 290.39 219.80L288.23 219.80Q288.35 218.24 289.68 217.22Q291.02 216.20 293.22 216.20Q295.62 216.20 296.91 217.35Q298.19 218.50 298.19 220.57L298.19 229.64L296.06 229.64L296.06 227.24L296.01 227.24Q295.82 228.46 294.78 229.17Q293.75 229.88 292.05 229.88M292.58 228.06Q294.16 228.06 295.10 227.29Q296.03 226.52 296.03 225.20L296.03 223.35L292.19 223.35Q291.14 223.35 290.48 223.99Q289.82 224.62 289.82 225.68Q289.82 226.78 290.55 227.42Q291.28 228.06 292.58 228.06" fill="white" fill-opacity="0.7"/>
<path d="M321.54 229.64L317.01 229.64L317.01 212.12L321.54 212.12Q323.25 212.12 324.48 212.77Q325.72 213.42 326.40 214.59Q327.09 215.77 327.09 217.38L327.09 224.36Q327.09 225.97 326.40 227.16Q325.72 228.34 324.48 228.99Q323.25 229.64 321.54 229.64M319.17 214.04L319.17 227.72L321.54 227.72Q323.13 227.72 324.03 226.83Q324.93 225.94 324.93 224.36L324.93 217.38Q324.93 215.82 324.03 214.93Q323.13 214.04 321.54 214.04" fill="white" fill-opacity="0.7"/>
<path d="M342.52 229.64L331.24 229.64L331.24 227.67L335.92 227.67L335.92 218.41L331.72 218.41L331.72 216.44L338.08 216.44L338.08 227.67L342.52 227.67L342.52 229.64M336.76 214.06Q335.97 214.06 335.51 213.66Q335.06 213.25 335.06 212.55Q335.06 211.83 335.51 211.41Q335.97 210.99 336.76 210.99Q337.55 210.99 338.01 211.41Q338.46 211.83 338.46 212.55Q338.46 213.25 338.01 213.66Q337.55 214.06 336.76 214.06" fill="white" fill-opacity="0.7"/>
<path d="M351.16 233.96L347.46 233.96L347.46 231.99L351.18 231.99Q352.31 231.99 352.96 231.36Q353.61 230.72 353.61 229.64L353.61 228.44L353.66 226.28L353.58 226.28Q353.39 227.46 352.46 228.09Q351.52 228.73 350.10 228.73Q348.06 228.73 346.89 227.43Q345.71 226.14 345.71 223.88L345.71 221.10Q345.71 218.84 346.89 217.52Q348.06 216.20 350.10 216.20Q351.52 216.20 352.46 216.87Q353.39 217.54 353.58 218.72L353.63 218.72L353.63 216.44L355.77 216.44L355.77 229.64Q355.77 231.63 354.53 232.80Q353.30 233.96 351.16 233.96M350.75 226.93Q352.10 226.93 352.86 226.09Q353.63 225.25 353.63 223.76L353.63 221.24Q353.63 219.75 352.86 218.91Q352.10 218.07 350.75 218.07Q349.38 218.07 348.63 218.86Q347.87 219.66 347.87 221L347.87 224Q347.87 225.34 348.63 226.14Q349.38 226.93 350.75 226.93" fill="white" fill-opacity="0.7"/>
<path d="M371.32 229.64L360.04 229.64L360.04 227.67L364.72 227.67L364.72 218.41L360.52 218.41L360.52 216.44L366.88 216.44L366.88 227.67L371.32 227.67L371.32 229.64M365.56 214.06Q364.77 214.06 364.31 213.66Q363.86 213.25 363.86 212.55Q363.86 211.83 364.31 211.41Q364.77 210.99 365.56 210.99Q366.35 210.99 366.81 211.41Q367.26 211.83 367.26 212.55Q367.26 213.25 366.81 213.66Q366.35 214.06 365.56 214.06" fill="white" fill-opacity="0.7"/>
<path d="M385.60 229.64L375.52 229.64L375.52 212.12L377.68 212.12L377.68 227.67L385.60 227.67" fill="white" fill-opacity="0.7"/>
<path d="M394 229.83Q391.62 229.83 390.22 228.44Q388.82 227.05 388.82 224.55L388.82 221.53Q388.82 219.01 390.21 217.63Q391.60 216.25 394 216.25Q396.40 216.25 397.79 217.63Q399.18 219.01 399.18 221.53L399.18 224.55Q399.18 227.05 397.78 228.44Q396.38 229.83 394 229.83M394 227.91Q395.42 227.91 396.22 227.12Q397.02 226.33 397.02 224.79L397.02 221.29Q397.02 219.75 396.22 218.96Q395.42 218.17 394 218.17Q392.61 218.17 391.79 218.96Q390.98 219.75 390.98 221.29L390.98 224.79Q390.98 226.33 391.79 227.12Q392.61 227.91 394 227.91" fill="white" fill-opacity="0.7"/>
<path d="M408.59 229.88Q406.19 229.88 404.75 228.54Q403.31 227.19 403.31 224.84L403.31 221.24Q403.31 218.89 404.75 217.54Q406.19 216.20 408.59 216.20Q410.87 216.20 412.28 217.42Q413.68 218.65 413.75 220.76L411.59 220.76Q411.52 219.49 410.73 218.80Q409.94 218.12 408.59 218.12Q407.18 218.12 406.32 218.92Q405.47 219.73 405.47 221.22L405.47 224.84Q405.47 226.33 406.32 227.14Q407.18 227.96 408.59 227.96Q409.94 227.96 410.73 227.26Q411.52 226.57 411.59 225.32L413.75 225.32Q413.68 227.43 412.28 228.66Q410.87 229.88 408.59 229.88" fill="white" fill-opacity="0.7"/>
<path d="M420.09 229.64L417.93 229.64L417.93 212.12L420.09 212.12L420.09 221.89L422.61 221.89L426.30 216.44L428.78 216.44L424.53 222.73L429.02 229.64L426.50 229.64L422.66 223.76L420.09 223.76" fill="white" fill-opacity="0.7"/>
<path d="M437.20 229.88Q434.87 229.88 433.44 228.48Q432.02 227.07 432.02 224.60L432.02 221.48Q432.02 219.01 433.44 217.60Q434.87 216.20 437.20 216.20Q438.76 216.20 439.92 216.82Q441.09 217.45 441.74 218.58Q442.38 219.70 442.38 221.24L442.38 223.59L434.13 223.59L434.13 224.84Q434.13 226.30 434.97 227.16Q435.81 228.01 437.20 228.01Q438.40 228.01 439.18 227.54Q439.96 227.07 440.13 226.28L442.29 226.28Q442.07 227.94 440.68 228.91Q439.29 229.88 437.20 229.88M434.13 221.24L434.13 221.91L440.27 221.91L440.27 221.24Q440.27 219.68 439.47 218.83Q438.66 217.98 437.20 217.98Q435.74 217.98 434.93 218.83Q434.13 219.68 434.13 221.24" fill="white" fill-opacity="0.7"/>
<path d="M449.25 229.64L447.09 229.64L447.09 216.44L449.25 216.44L449.25 218.96L449.30 218.96Q449.46 217.69 450.38 216.94Q451.29 216.20 452.82 216.20Q454.89 216.20 456 217.44Q457.12 218.67 457.12 220.95L457.12 222.08L454.96 222.08L454.96 220.95Q454.96 218.07 452.15 218.07Q450.74 218.07 449.99 218.89Q449.25 219.70 449.25 221.24" fill="white" fill-opacity="0.7"/>
<path d="M466 229.88Q465.11 229.88 464.57 229.35Q464.03 228.82 464.03 227.98Q464.03 227.10 464.57 226.54Q465.11 225.99 466 225.99Q466.89 225.99 467.43 226.54Q467.97 227.10 467.97 227.98Q467.97 228.82 467.43 229.35Q466.89 229.88 466 229.88" fill="white" fill-opacity="0.7"/>
<path d="M76.11 136.06L66.42 136.06L84.56 65.98L97.14 65.98L115.18 136.06L105.49 136.06L101.07 117.82L80.53 117.82L76.11 136.06M87.54 88.92L82.45 109.95L99.15 109.95L94.16 89.02Q92.72 83.26 91.86 79.23Q90.99 75.20 90.80 73.76Q90.61 75.20 89.74 79.23Q88.88 83.26 87.54 88.92M137.55 136.06L128.05 136.06L128.05 65.98L150.80 65.98Q157.52 65.98 162.42 68.57Q167.31 71.16 170 75.82Q172.69 80.48 172.69 86.91Q172.69 93.24 170 97.90Q167.31 102.56 162.37 105.15Q157.42 107.74 150.80 107.74L137.55 107.74L137.55 136.06M137.55 74.43L137.55 99.29L150.80 99.29Q156.37 99.29 159.63 95.88Q162.90 92.48 162.90 86.91Q162.90 81.24 159.63 77.84Q156.37 74.43 150.80 74.43L137.55 74.43M225.10 136.06L186.90 136.06L186.90 127.42L201.20 127.42L201.20 74.62L186.90 74.62L186.90 65.98L225.10 65.98L225.10 74.62L210.80 74.62L210.80 127.42L225.10 127.42L225.10 136.06M263.98 137.02Q253.62 137.02 247.47 131.60Q241.33 126.17 241.33 116.67L250.83 116.67Q250.83 122.24 254.38 125.40Q257.94 128.57 263.98 128.57Q269.74 128.57 273.15 125.36Q276.56 122.14 276.56 116.76Q276.56 112.73 274.35 109.71Q272.14 106.68 268.11 105.63L257.74 102.84Q250.93 100.92 246.94 95.88Q242.96 90.84 242.96 83.93Q242.96 78.27 245.50 74Q248.05 69.72 252.66 67.37Q257.26 65.02 263.31 65.02Q269.46 65.02 274.11 67.37Q278.77 69.72 281.36 73.95Q283.95 78.17 283.95 83.74L274.54 83.74Q274.54 79.13 271.42 76.25Q268.30 73.37 263.31 73.37Q258.32 73.37 255.30 76.25Q252.27 79.13 252.27 83.74Q252.27 87.48 254.29 90.03Q256.30 92.57 259.95 93.63L270.61 96.51Q277.81 98.43 281.84 103.85Q285.87 109.28 285.87 116.76Q285.87 122.91 283.18 127.47Q280.50 132.03 275.55 134.52Q270.61 137.02 263.98 137.02M342.51 136.06L301.71 136.06L301.71 65.98L342.51 65.98L342.51 74.52L311.12 74.52L311.12 95.36L339.15 95.36L339.15 103.61L311.12 103.61L311.12 127.52L342.51 127.52L342.51 136.06M383.60 136.06L374.10 136.06L374.10 74.62L355.09 74.62L355.09 65.98L402.51 65.98L402.51 74.62L383.60 74.62L383.60 136.06M436.40 137.02Q426.51 137.02 421.18 131.55Q415.86 126.08 415.86 116.67L415.86 65.98L425.36 65.98L425.36 116.67Q425.36 122.24 428.10 125.40Q430.83 128.57 436.40 128.57Q441.87 128.57 444.70 125.40Q447.54 122.24 447.54 116.67L447.54 65.98L457.04 65.98L457.04 116.67Q457.04 126.17 451.71 131.60Q446.38 137.02 436.40 137.02M551.98 137.02Q542.29 137.02 536.58 131.60Q530.86 126.17 530.86 116.67L530.86 85.28Q530.86 75.87 536.58 70.44Q542.29 65.02 551.98 65.02Q561.58 65.02 567.30 70.49Q573.01 75.96 573.01 85.28L563.50 85.28Q563.50 79.61 560.43 76.54Q557.36 73.47 551.98 73.47Q546.51 73.47 543.44 76.54Q540.37 79.61 540.37 85.28L540.37 116.67Q540.37 122.43 543.44 125.50Q546.51 128.57 551.98 128.57Q557.36 128.57 560.43 125.50Q563.50 122.43 563.50 116.67L563.50 107.55L549.87 107.55L549.87 99.10L573.01 99.10L573.01 116.67Q573.01 126.08 567.30 131.55Q561.58 137.02 551.98 137.02M609.20 137.02Q599.60 137.02 594.03 131.45Q588.46 125.88 588.46 115.71L588.46 86.24Q588.46 76.16 594.03 70.59Q599.60 65.02 609.20 65.02Q618.80 65.02 624.37 70.54Q629.94 76.06 629.94 86.24L629.94 115.71Q629.94 125.88 624.37 131.45Q618.80 137.02 609.20 137.02M609.20 128.57Q614.58 128.57 617.50 125.50Q620.43 122.43 620.43 116.67L620.43 85.28Q620.43 79.61 617.55 76.54Q614.67 73.47 609.20 73.47Q603.73 73.47 600.85 76.54Q597.97 79.61 597.97 85.28L597.97 116.67Q597.97 122.43 600.90 125.50Q603.82 128.57 609.20 128.57M673.14 136.06L660.37 136.06L642.42 65.98L652.21 65.98L663.82 113.21Q664.98 117.72 665.79 121.90Q666.61 126.08 666.99 128.28Q667.28 126.08 668.19 121.85Q669.10 117.63 670.16 113.12L681.39 65.98L691.18 65.98L673.14 136.06M801.10 136.06L762.90 136.06L762.90 127.42L777.20 127.42L777.20 74.62L762.90 74.62L762.90 65.98L801.10 65.98L801.10 74.62L786.80 74.62L786.80 127.42L801.10 127.42L801.10 136.06M839.98 137.02Q830.29 137.02 824.58 131.60Q818.86 126.17 818.86 116.67L818.86 85.28Q818.86 75.87 824.58 70.44Q830.29 65.02 839.98 65.02Q849.58 65.02 855.30 70.49Q861.01 75.96 861.01 85.28L851.50 85.28Q851.50 79.61 848.43 76.54Q845.36 73.47 839.98 73.47Q834.51 73.47 831.44 76.54Q828.37 79.61 828.37 85.28L828.37 116.67Q828.37 122.43 831.44 125.50Q834.51 128.57 839.98 128.57Q845.36 128.57 848.43 125.50Q851.50 122.43 851.50 116.67L851.50 107.55L837.87 107.55L837.87 99.10L861.01 99.10L861.01 116.67Q861.01 126.08 855.30 131.55Q849.58 137.02 839.98 137.02M886.35 136.06L876.94 136.06L876.94 65.98L898.64 65.98Q905.07 65.98 909.87 68.52Q914.67 71.07 917.36 75.63Q920.05 80.19 920.05 86.33Q920.05 93.44 916.45 98.52Q912.85 103.61 906.90 105.72L921.01 136.06L910.54 136.06L897.20 106.78L886.35 106.78L886.35 136.06M886.35 74.43L886.35 98.33L898.64 98.33Q904.02 98.33 907.14 95.07Q910.26 91.80 910.26 86.43Q910.26 80.96 907.09 77.69Q903.92 74.43 898.64 74.43L886.35 74.43M941.55 136.06L932.53 136.06L932.53 65.98L945.97 65.98L954.61 96.22L963.63 65.98L977.17 65.98L977.17 136.06L968.05 136.06L968.05 103.90Q968.05 98.81 968.24 92.62Q968.43 86.43 968.77 80.24Q969.10 74.04 969.49 69.05L958.54 104.96L950.48 104.96L939.92 69.92Q940.78 76.92 941.17 85.52Q941.55 94.11 941.55 103.90L941.55 136.06M997.71 136.06L988.02 136.06L1006.16 65.98L1018.74 65.98L1036.78 136.06L1027.09 136.06L1022.67 117.82L1002.13 117.82L997.71 136.06M1009.14 88.92L1004.05 109.95L1020.75 109.95L1015.76 89.02Q1014.32 83.26 1013.46 79.23Q1012.59 75.20 1012.40 73.76Q1012.21 75.20 1011.34 79.23Q1010.48 83.26 1009.14 88.92M1059.25 136.06L1049.74 136.06L1049.74 65.98L1059.25 65.98L1059.25 95.55L1080.75 95.55L1080.75 65.98L1090.26 65.98L1090.26 136.06L1080.75 136.06L1080.75 104.19L1059.25 104.19L1059.25 136.06M1112.91 136.06L1103.22 136.06L1121.36 65.98L1133.94 65.98L1151.98 136.06L1142.29 136.06L1137.87 117.82L1117.33 117.82L1112.91 136.06M1124.34 88.92L1119.25 109.95L1135.95 109.95L1130.96 89.02Q1129.52 83.26 1128.66 79.23Q1127.79 75.20 1127.60 73.76Q1127.41 75.20 1126.54 79.23Q1125.68 83.26 1124.34 88.92M1174.35 136.06L1164.94 136.06L1164.94 65.98L1186.64 65.98Q1193.07 65.98 1197.87 68.52Q1202.67 71.07 1205.36 75.63Q1208.05 80.19 1208.05 86.33Q1208.05 93.44 1204.45 98.52Q1200.85 103.61 1194.90 105.72L1209.01 136.06L1198.54 136.06L1185.20 106.78L1174.35 106.78L1174.35 136.06M1174.35 74.43L1174.35 98.33L1186.64 98.33Q1192.02 98.33 1195.14 95.07Q1198.26 91.80 1198.26 86.43Q1198.26 80.96 1195.09 77.69Q1191.92 74.43 1186.64 74.43L1174.35 74.43M1228.11 136.06L1218.42 136.06L1236.56 65.98L1249.14 65.98L1267.18 136.06L1257.49 136.06L1253.07 117.82L1232.53 117.82L1228.11 136.06M1239.54 88.92L1234.45 109.95L1251.15 109.95L1246.16 89.02Q1244.72 83.26 1243.86 79.23Q1242.99 75.20 1242.80 73.76Q1242.61 75.20 1241.74 79.23Q1240.88 83.26 1239.54 88.92M1300.78 137.02Q1290.42 137.02 1284.27 131.60Q1278.13 126.17 1278.13 116.67L1287.63 116.67Q1287.63 122.24 1291.18 125.40Q1294.74 128.57 1300.78 128.57Q1306.54 128.57 1309.95 125.36Q1313.36 122.14 1313.36 116.76Q1313.36 112.73 1311.15 109.71Q1308.94 106.68 1304.91 105.63L1294.54 102.84Q1287.73 100.92 1283.74 95.88Q1279.76 90.84 1279.76 83.93Q1279.76 78.27 1282.30 74Q1284.85 69.72 1289.46 67.37Q1294.06 65.02 1300.11 65.02Q1306.26 65.02 1310.91 67.37Q1315.57 69.72 1318.16 73.95Q1320.75 78.17 1320.75 83.74L1311.34 83.74Q1311.34 79.13 1308.22 76.25Q1305.10 73.37 1300.11 73.37Q1295.12 73.37 1292.10 76.25Q1289.07 79.13 1289.07 83.74Q1289.07 87.48 1291.09 90.03Q1293.10 92.57 1296.75 93.63L1307.41 96.51Q1314.61 98.43 1318.64 103.85Q1322.67 109.28 1322.67 116.76Q1322.67 122.91 1319.98 127.47Q1317.30 132.03 1312.35 134.52Q1307.41 137.02 1300.78 137.02M1347.25 136.06L1337.74 136.06L1337.74 65.98L1347.25 65.98L1347.25 95.55L1368.75 95.55L1368.75 65.98L1378.26 65.98L1378.26 136.06L1368.75 136.06L1368.75 104.19L1347.25 104.19L1347.25 136.06M1420.40 136.06L1410.90 136.06L1410.90 74.62L1391.89 74.62L1391.89 65.98L1439.31 65.98L1439.31 74.62L1420.40 74.62L1420.40 136.06M1462.35 136.06L1452.94 136.06L1452.94 65.98L1474.64 65.98Q1481.07 65.98 1485.87 68.52Q1490.67 71.07 1493.36 75.63Q1496.05 80.19 1496.05 86.33Q1496.05 93.44 1492.45 98.52Q1488.85 103.61 1482.90 105.72L1497.01 136.06L1486.54 136.06L1473.20 106.78L1462.35 106.78L1462.35 136.06M1462.35 74.43L1462.35 98.33L1474.64 98.33Q1480.02 98.33 1483.14 95.07Q1486.26 91.80 1486.26 86.43Q1486.26 80.96 1483.09 77.69Q1479.92 74.43 1474.64 74.43L1462.35 74.43M1516.11 136.06L1506.42 136.06L1524.56 65.98L1537.14 65.98L1555.18 136.06L1545.49 136.06L1541.07 117.82L1520.53 117.82L1516.11 136.06M1527.54 88.92L1522.45 109.95L1539.15 109.95L1534.16 89.02Q1532.72 83.26 1531.86 79.23Q1530.99 75.20 1530.80 73.76Q1530.61 75.20 1529.74 79.23Q1528.88 83.26 1527.54 88.92" fill="url(#paint2_linear_0_1)"/>
<g id="Group 1">
<rect id="Rectangle 1" x="26" y="168" width="12" height="184" rx="5" fill="url(#paint3_linear_0_1)" fill-opacity="0.9"/>
</g>
<g id="Group 1_2">
<rect id="Rectangle 2" x="26" y="38" width="12" height="119" rx="5" fill="url(#paint4_linear_0_1)" fill-opacity="0.9"/>
</g>
<ellipse id="Ellipse 1" cx="148.5" cy="573" rx="215.5" ry="214" fill="url(#paint5_linear_0_1)" fill-opacity="0.4"/>
<rect id="Rectangle 3" x="1229" y="48" width="300" height="300" rx="25" fill="#FFFBFB" fill-opacity="0.9"/>
<g id="placeholder-logo"><g transform="translate(1229,48) translate(0.0,60.0) scale(1.2000)"><g fill="#666666">
  <path d="m88.05,27.65c-3.15,4 -3.2,51.2 -0.05,54.35c2.75,2.75 71.7,3.15 74.45,0.45c2.85,-2.9 2.3,-53.85 -0.65,-55.9c-1.95,-1.35 -7.15,-1.55 -36.95,-1.55l-34.7,0l-2.1,2.65zm69.45,3.35c0.65,0 1,8.6 1,23.75l0,23.75l-33,0l-33,0l-0.25,-23c-0.15,-12.6 -0.1,-23.45 0.15,-24.1c0.35,-0.85 8.9,-1.05 32.25,-0.75c17.55,0.2 32.3,0.35 32.85,0.35z"/>
  <path d="m99.15,37.3c-6.85,7.35 4.25,17.35 11.4,10.25c1.35,-1.35 2.45,-3.65 2.45,-5.05c0,-6.45 -9.35,-9.95 -13.85,-5.2z"/>
  <path d="m135,42.5c-0.7,0.85 -5.25,5.15 -10.1,9.6l-8.85,8.1l-3.2,-3.2l-3.15,-3.15l-6.35,6.3c-5.55,5.5 -6.35,6.75 -6.35,10.05l0,3.8l28.5,0l28.5,0l0,-8.6l0,-8.55l-8.15,-7.7c-9.35,-8.85 -9.15,-8.7 -10.85,-6.65zm7.25,15.2c0.95,0.9 1.75,2.9 1.75,4.45c6.35,-5.05 4.75,-7.15 4.9,-11.55c0.95,0 0,0 0,0l-6.65,7.1z"/>
  <path d="m53.65,110.75c0.1,4.8 0.45,8.65 0.75,8.5c0.35,-0.15 1.3,-0.25 2.1,-0.25c1.1,0 1.5,-1.2 1.5,-4.75l0,-4.75l3.25,5c4.9,7.5 6.2,6.75 6.55,-3.75c0.25,-8.15 0.15,-8.75 -1.7,-8.75c-1.65,0 -2.05,0.8 -2.3,4.75l-0.3,4.75l-2.8,-4.75c-4.85,-8.25 -7.25,-6.9 -7.05,4z"/>
  <path d="m91,108.9c0,9.65 0.3,10.1 6.1,10.1c5.8,0 7.15,-2.65 1.65,-3.2l-3.25,-0.3l-0.3,-6.75c-0.25,-5.95 -0.55,-6.75 -2.25,-6.75c-1.75,0 -1.95,0.7 -1.95,6.9z"/>
  <path d="m151,102.45c0,0.25 1,2.15 2.25,4.2c1.2,2.1 2.45,5.8 2.75,8.25c0.65,5.9 4,6.95 4,1.25c0.05,-2.1 1.25,-5.85 2.95,-8.9l2.9,-5.25l-2.5,0c-1.8,0 -2.8,0.85 -3.75,3.1l-1.3,3.05l-1.25,-3.05c-1.1,-2.6 -6.05,-4.8 -6.05,-2.65z"/>
  <path d="m191,107.45c0,9.05 3.4,8.85 4.25,-0.2c0.45,-5 0.35,-5.25 -1.9,-5.25c-2.2,0 -2.35,0.4 -2.35,5.45z"/>
  <path d="m180.8,104.75c-1.3,5.35 0.65,13.6 3.45,14.35c2.3,0.6 2.75,0.4 2.75,-1.2c0,-1.05 -0.45,-1.9 -1,-1.9c-0.55,0 -1,-1.6 -1,-3.5c0,-1.95 0.45,-3.5 1,-3.5c0.55,0 1,-0.7 1,-1.5c0,-0.85 -0.45,-1.5 -1,-1.5c-0.55,0 -1,-0.7 -1,-1.5c0,-2.1 -3.65,-1.9 -4.2,0.25z"/>
  <path d="m71.55,106.55c-2.2,2.25 -2.05,9.7 0.3,11.8c4.5,4.1 10.15,0.75 10.15,-6.1c0,-4.85 -2,-7.25 -6,-7.25c-1.55,0 -3.55,0.7 -4.45,1.55zm6.25,5.8c0.25,3.05 0,3.65 -1.6,3.65c-2.3,0 -3.25,-2.65 -2.05,-5.85c1.25,-3.35 3.3,-2.1 3.65,2.2z"/>
  <path d="m105.75,106.1c-2.5,1.45 -2.45,9.95 0.1,12.25c4.3,3.9 10.15,0.35 10.15,-6.2c0,-6 -5.15,-9.05 -10.25,-6.05zm6.05,6.25c0.25,3.05 0,3.65 -1.6,3.65c-2.3,0 -3.25,-2.65 -2.05,-5.85c1.25,-3.35 3.3,-2.1 3.65,2.2z"/>
  <path d="m119.2,106.2c-3.8,3.8 -0.4,12.55 4.4,11.35c1.9,-0.45 2.45,-0.3 2.15,0.65c-0.25,0.7 -1.55,1.2 -2.85,1.1c-4.05,-0.3 -5.35,0.45 -3.85,2.25c0.85,1.05 2.6,1.45 5.35,1.25l4.1,-0.3l0.3,-8.75l0.3,-8.75l-4.35,0c-2.4,0 -4.9,0.55 -5.55,1.2zm6.6,4.45c0.4,2.85 -2.15,4.85 -3.75,2.95c-0.9,-1.1 -0.9,-2 -0.05,-3.6c1.35,-2.5 3.4,-2.15 3.8,0.65z"/>
  <path d="m133.55,106.55c-2.2,2.25 -2.05,9.7 0.3,11.8c4.5,4.1 10.15,0.75 10.15,-6.1c0,-4.85 -2,-7.25 -6,-7.25c-1.55,0 -3.55,0.7 -4.45,1.55zm6.25,5.8c0.25,3.05 0,3.65 -1.6,3.65c-2.3,0 -3.25,-2.65 -2.05,-5.85c1.25,-3.35 3.3,-2.1 3.65,2.2z"/>
  <path d="m167.65,106.85c-3.9,4.3 -0.75,13.15 4.7,13.15c2.4,0 5.65,-2.75 5.65,-4.85c0,-1.4 -2.65,-1.55 -3.5,-0.15c-0.95,1.55 -4.5,1.15 -4.5,-0.5c0,-1.1 1.1,-1.5 4,-1.5c3.15,0 4,-0.35 4,-1.8c0,-5.3 -6.85,-8.25 -10.35,-4.35z"/>
  <path d="m191,117.5c0,2.15 0.4,2.6 2.25,2.3c1.5,-0.2 2.25,-1 2.25,-2.3c0,-1.3 -0.75,-2.1 -2.25,-2.3c-1.85,-0.3 -2.25,0.15 -2.25,2.3z"/>
 </g></g></g>
</g>
<defs>
<linearGradient id="paint0_linear_0_1" x1="0" y1="198" x2="1584" y2="198" gradientUnits="userSpaceOnUse">
<stop stop-color="#3D052C"/>
<stop offset="1"/>
</linearGradient>
<linearGradient id="paint1_linear_0_1" x1="323" y1="-224" x2="323" y2="352" gradientUnits="userSpaceOnUse">
<stop stop-color="#28F6F2" stop-opacity="0.4"/>
<stop offset="1" stop-color="#17908E" stop-opacity="0.7"/>
</linearGradient>
<linearGradient id="paint2_linear_0_1" x1="148.5" y1="38" x2="148.5" y2="140" gradientUnits="userSpaceOnUse">
<stop stop-color="white"/>
<stop offset="1" stop-color="#999999"/>
</linearGradient>
<linearGradient id="paint3_linear_0_1" x1="38" y1="260" x2="26" y2="260" gradientUnits="userSpaceOnUse">
<stop stop-color="#D9D9D9"/>
<stop offset="1" stop-color="#737373"/>
</linearGradient>
<linearGradient id="paint4_linear_0_1" x1="38" y1="97.5" x2="26" y2="97.5" gradientUnits="userSpaceOnUse">
<stop stop-color="#D9D9D9"/>
<stop offset="1" stop-color="#737373"/>
</linearGradient>
<linearGradient id="paint5_linear_0_1" x1="27.5" y1="434.5" x2="148.5" y2="787" gradientUnits="userSpaceOnUse">
<stop stop-color="#2E21BC"/>
<stop offset="1" stop-color="#150F56"/>
</linearGradient>
<clipPath id="clip0_0_1">
<rect width="1584" height="396" fill="white"/>
</clipPath>
</defs>
</svg>
